<?xml version="1.0" standalone="no"?>
<!DOCTYPE svg PUBLIC "-//W3C//DTD SVG 20010904//EN"
 "http://www.w3.org/TR/2001/REC-SVG-20010904/DTD/svg10.dtd">
<svg version="1.0" xmlns="http://www.w3.org/2000/svg"
 width="512.000000pt" height="512.000000pt" viewBox="0 0 512.000000 512.000000"
 preserveAspectRatio="xMidYMid meet">

<g transform="translate(0.000000,512.000000) scale(0.100000,-0.100000)"
fill="#000000" stroke="none">
<path d="M2181 4241 c-8 -5 -19 -24 -26 -42 -7 -19 -40 -106 -75 -194 -91
-232 -92 -235 -159 -410 -34 -88 -65 -169 -70 -180 -5 -11 -16 -40 -26 -65
-10 -25 -21 -54 -26 -65 -4 -11 -23 -60 -42 -110 -77 -198 -109 -281 -116
-300 -5 -11 -16 -40 -26 -65 -9 -25 -22 -56 -27 -70 -6 -14 -37 -95 -70 -180
-33 -85 -68 -175 -78 -200 -10 -25 -45 -117 -79 -205 -34 -88 -65 -169 -70
-180 -5 -11 -17 -40 -26 -65 -10 -25 -23 -58 -30 -75 -7 -16 -41 -104 -75
-195 -34 -91 -68 -178 -75 -195 -18 -43 -38 -95 -89 -225 -87 -226 -87 -223
-73 -232 14 -9 641 -11 674 -2 14 4 26 18 32 38 5 17 23 69 41 116 17 47 35
96 40 110 4 14 26 75 48 135 22 61 56 154 76 209 19 54 41 105 47 112 10 12
120 14 650 14 623 0 639 0 649 -20 5 -10 44 -108 86 -217 42 -109 85 -220 96
-248 17 -45 38 -101 72 -191 25 -67 5 -64 373 -64 207 0 342 4 353 10 20 11
18 18 -41 155 -5 11 -22 56 -39 100 -17 44 -35 89 -40 100 -5 11 -23 56 -40
100 -17 44 -35 89 -40 100 -5 11 -23 56 -40 100 -17 44 -35 89 -40 100 -5 11
-23 56 -40 100 -17 44 -35 89 -40 100 -5 11 -23 56 -40 100 -18 44 -36 89 -40
100 -5 11 -23 56 -40 100 -18 44 -36 89 -41 100 -4 11 -22 56 -39 100 -17 44
-35 89 -40 100 -5 11 -23 56 -40 100 -17 44 -35 89 -40 100 -5 11 -23 56 -40
100 -17 44 -35 89 -40 100 -5 11 -23 56 -40 100 -17 44 -35 89 -40 100 -5 11
-23 56 -40 100 -18 44 -36 89 -40 100 -5 11 -23 56 -40 100 -18 44 -36 89 -41
100 -4 11 -22 56 -39 100 -17 44 -35 89 -40 100 -5 11 -23 56 -40 100 -17 44
-35 89 -40 100 -5 11 -23 56 -40 100 -36 93 -56 140 -73 175 l-13 25 -339 2
c-187 2 -346 -1 -354 -6z m362 -838 c9 -21 41 -108 72 -193 31 -85 60 -164 65
-175 20 -51 42 -109 80 -215 23 -63 48 -131 55 -150 78 -199 135 -365 131
-376 -8 -21 -834 -21 -842 1 -6 14 4 45 67 215 17 47 35 96 39 110 5 14 16 43
24 65 43 116 78 213 86 235 10 32 79 220 120 330 17 47 35 96 40 110 30 92 39
98 63 43z"/>
</g>
</svg>
